<svg xmlns="http://www.w3.org/2000/svg" width="256" height="256" viewBox="0 0 256 256"><defs><linearGradient id="bg" x1="38" x2="218" y1="30" y2="230" gradientUnits="userSpaceOnUse"><stop offset="0" stop-color="#8ff0a4"/><stop offset=".45" stop-color="#62a0ea"/><stop offset="1" stop-color="#1c71d8"/></linearGradient><linearGradient id="leaf" x1="70" x2="172" y1="54" y2="178" gradientUnits="userSpaceOnUse"><stop offset="0" stop-color="#f6f5f4"/><stop offset="1" stop-color="#d8f7df"/></linearGradient><filter id="shadow" width="140%" height="150%" x="-20%" y="-20%"><feDropShadow dx="0" dy="10" flood-color="#1a1a1a" flood-opacity=".28" stdDeviation="10"/></filter></defs><rect width="212" height="212" x="22" y="22" fill="url(#bg)" filter="url(#shadow)" rx="54"/><path fill="#1a5fb4" d="M198 67c-47 1-84 13-108 36-22 22-29 51-22 77l-22 22a13 13 0 0 0 18 18l21-21c18 15 41 22 64 17 39-8 64-43 68-91l4-39c1-11-9-20-23-19Z" opacity=".18"/><path fill="url(#leaf)" d="M194 56c-49 1-89 15-115 41-24 24-32 56-23 84l-23 23a12 12 0 0 0 17 17l22-22c19 17 45 24 70 19 41-8 68-45 72-96l4-43c1-13-9-23-24-23Z"/><path fill="#26a269" d="M195 78l-3 41c-3 40-23 69-54 75-16 3-33 0-47-9l65-65a12 12 0 1 0-17-17l-63 63c-2-18 5-38 20-53 20-20 53-32 99-35Z" opacity=".28"/><path fill="none" stroke="#241f31" stroke-linecap="round" stroke-width="16" d="M72 199l83-83" opacity=".82"/><circle cx="71" cy="74" r="13" fill="#f6f5f4" opacity=".92"/><circle cx="53" cy="116" r="8" fill="#f6f5f4" opacity=".78"/><circle cx="185" cy="181" r="10" fill="#f6f5f4" opacity=".72"/><circle cx="203" cy="143" r="6" fill="#f6f5f4" opacity=".68"/></svg>