<?xml version="1.0" encoding="UTF-8"?>
<svg xmlns="http://www.w3.org/2000/svg" width="16" height="16" viewBox="0 0 16 16">
  <title>airgradient-voc-symbolic</title>
  <g fill="#2e3436">
    <path d="M6 1.5a.75.75 0 0 0 0 1.5h.5v3.2l-3.1 5.3A2 2 0 0 0 5.1 14h5.8a2 2 0 0 0 1.7-2.9L9.5 6.2V3h.5a.75.75 0 0 0 0-1.5Zm2 5.3 1.2 2H6.8Zm-2.9 5.4 1.1-1.9h3.9l1 1.7a.5.5 0 0 1-.4.8H5.1a.5.5 0 0 1-.4-.8Z"/>
    <path d="M11.6 2.4a.6.6 0 0 1 .8-.2c.6.3 1 .9 1 1.6s-.4 1.3-1 1.6a.6.6 0 1 1-.6-1c.2-.1.4-.3.4-.6s-.2-.5-.4-.6a.6.6 0 0 1-.2-.8ZM3.6 4.2a.6.6 0 0 1 .8.2c.1.2.3.4.6.4a.6.6 0 0 1 0 1.2c-.7 0-1.3-.4-1.6-1a.6.6 0 0 1 .2-.8Z"/>
  </g>
</svg>
