<svg xmlns="http://www.w3.org/2000/svg" width="16" height="16" viewBox="0 0 16 16"><title>airgradient-temperature-symbolic</title><g fill="#2e3436"><path d="M7.5 1A2.5 2.5 0 0 0 5 3.5v5.04a4 4 0 1 0 5 0V3.5A2.5 2.5 0 0 0 7.5 1Zm0 1.5c.55 0 1 .45 1 1v5.45c0 .28.15.54.39.68a2.5 2.5 0 1 1-2.78 0 .8.8 0 0 0 .39-.68V3.5c0-.55.45-1 1-1Z"/><path d="M7 5.5a.5.5 0 0 1 1 0v4.18a1.75 1.75 0 1 1-1 0Z"/><path d="M11.25 2.5a.75.75 0 0 1 .75-.75h2a.75.75 0 0 1 0 1.5h-2a.75.75 0 0 1-.75-.75Zm0 3a.75.75 0 0 1 .75-.75h1.25a.75.75 0 0 1 0 1.5H12a.75.75 0 0 1-.75-.75Zm0 3a.75.75 0 0 1 .75-.75h2a.75.75 0 0 1 0 1.5h-2a.75.75 0 0 1-.75-.75Z"/></g></svg>