<svg xmlns="http://www.w3.org/2000/svg" width="16" height="16" viewBox="0 0 16 16"><title>airgradient-humidity-symbolic</title><g fill="#2e3436"><path d="M8 1.25a.75.75 0 0 1 .56.25c1.06 1.2 2.12 2.57 2.93 3.9.8 1.31 1.41 2.7 1.41 3.95a4.9 4.9 0 0 1-9.8 0c0-1.25.61-2.64 1.41-3.95.81-1.33 1.87-2.7 2.93-3.9A.75.75 0 0 1 8 1.25Zm0 1.9c-.82.97-1.6 2.03-2.21 3.03C5.06 7.37 4.6 8.48 4.6 9.35a3.4 3.4 0 0 0 6.8 0c0-.87-.46-1.98-1.19-3.17A25 25 0 0 0 8 3.15Z"/><path d="M5.95 9.65a.75.75 0 0 1 .75.75 1.35 1.35 0 0 0 1.35 1.35.75.75 0 0 1 0 1.5A2.85 2.85 0 0 1 5.2 10.4a.75.75 0 0 1 .75-.75Z"/></g></svg>